# xmcd
#
# Track frame offsets: 
#        150
#        17679
#        36827
#        62860
#        76457
#        95259
#        108490
#        156580
#
# Disc length: 2351 seconds
#
# Revision: 2
# Processed by: cddbd v1.5.2PL0 Copyright (c) Steve Scherf et al.
# Submitted via: ExactAudioCopyFreeDBPlugin 1.0
#
DISCID=62092d08
DTITLE=Trelldom - Til Minne...
DYEAR=2007
DGENRE=Black Metal
TTITLE0=Til Minne...
TTITLE1=Bortkomne Svar
TTITLE2=Fra Mitt Gamle...
TTITLE3=By My Will
TTITLE4=Vinternatt
TTITLE5=From This Past
TTITLE6=Steg
TTITLE7=Eg Reiste I Minnet...
EXTD=
EXTT0=
EXTT1=
EXTT2=
EXTT3=
EXTT4=
EXTT5=
EXTT6=
EXTT7=
PLAYORDER=
